<svg data-name="Layer 1" xmlns="http://www.w3.org/2000/svg" viewBox="0 0 123.32 17.86"><path d="M2.03 13.96l.13-6.14H0l.95-1.43 2.41-1.66 2.21-1.56h.13v3.07h3.84l-.42 1.51h-3.5l-.08 5.67c-.05 2 .55 2.7 2 2.7a2.77 2.77 0 0 0 2.08-.8l.1.1c-1.3 1.35-2.52 2.29-4.26 2.29-2.42-.01-3.46-1.18-3.43-3.75zm8.5 3.36h.31c.81-.05 1.09-.1 1.09-.42V9.67c0-1.61-.18-1.82-1.07-2.05l-.6-.13v-.1l5.41-1.48-.08 4.11h.05c.81-2.78 1.9-4.16 3.54-4.16a1.9 1.9 0 0 1 2.05 2 1.82 1.82 0 0 1-1.74 1.77 2.15 2.15 0 0 1-2-1.77c-.78.05-1.3 1-1.87 3.33v5.64c0 .21.23.34 1.43.42h.34l.08.16h-7zm18.2-2.08l-.05-.05c-1.27 1.48-2.42 2.52-3.82 2.52a2.64 2.64 0 0 1-2.68-2.44c0-2 1.69-3.17 6.6-4.5v-1c.08-1.85-.88-3.25-2.63-3.25-1 0-1.27.23-1.27.55s.88 1 .88 1.66a1.64 1.64 0 0 1-1.73 1.59c-.88 0-1.66-.47-1.66-1.4 0-2 3.8-3.07 6-3.07 3.2 0 4.19 1.3 4.11 4l-.21 4.73c-.05 1 .44 1.51 1 1.51.42 0 .81-.47 1.09-.88l.18.08c-.7.86-2 2.5-3.46 2.5-1.31-.06-2.13-1.02-2.35-2.55zm-.1-.31l.18-3.87c-2.24.6-3 1.46-3 2.83 0 1 .49 1.79 1.48 1.79a1.9 1.9 0 0 0 1.34-.76zm6.68-2.71a6.21 6.21 0 0 1 6.45-6.37c2.5 0 4.37 1.14 4.37 2.7a1.78 1.78 0 0 1-3.56.1c0-.75.78-1.51.78-1.72 0-.39-.6-.73-1.35-.73-1.61 0-2.65 1.69-2.65 4.71 0 3.17 1.27 4.89 3.69 4.89a3.15 3.15 0 0 0 3.09-2l.16.08c-1 2.57-2.86 4-5.41 4a5.45 5.45 0 0 1-5.57-5.66zm11.91 5.1h.23c.78-.1 1.07-.1 1.07-.42V3.56c0-1.56-.13-1.77-1-2l-.6-.16.03-.08 5.33-1.3v12l1.53-1.3c2.05-1.87 2.65-2.7 2.65-3.3s-.13-.88-1.92-1h-.34l-.1-.16h6.66l-.08.16-.36.05c-1.35.21-2.13.31-4.42 2.6 0 0-.16.16-.13.18l3.18 6.14c.78 1.51 1.09 1.82 1.85 1.87h.39l.08.16H55.8l-.23-.47-2.62-5.2-.7.57v4.58c0 .21.16.29 1.27.36l.43.06v.16h-6.81z" fill="#344750"/><path d="M61.95 17.32h.31c.81-.05 1.09-.1 1.09-.42V9.67c0-1.61-.18-1.82-1.07-2.05l-.6-.13v-.1l5.41-1.48-.08 2.34c1.22-1.07 2.89-2.39 4.58-2.39a2.81 2.81 0 0 1 2.08.91 4.8 4.8 0 0 1 .83 3.12v7c0 .16.13.23 1.35.39h.23l.08.16H69.5l.08-.16h.47c.91-.05.86-.21.86-.42v-6.6c0-1.69-.86-2.21-2-2.21a3.31 3.31 0 0 0-1.85.55v8.32c0 .21.1.29 1 .36h.39l.05.16h-6.62zm15.27-5.52c0-3.3 2.63-6 6.55-6s6.34 2.68 6.34 5.9c0 3.38-2.57 6.06-6.55 6.06s-6.34-2.68-6.34-5.96zm8.92.13c0-3.38-.6-4.76-1.25-5.41a1.55 1.55 0 0 0-1.17-.42c-1.72 0-2.57 2.16-2.57 5.56s.62 4.81 1.25 5.49a1.53 1.53 0 0 0 1.2.42c1.66 0 2.54-2.25 2.54-5.64zm7.07 2.03l.13-6.14h-2.16l.94-1.4 2.42-1.66 2.21-1.59h.13v3.07h3.87l-.42 1.51H96.8l-.08 5.67c-.05 2 .55 2.7 2 2.7a2.77 2.77 0 0 0 2.08-.81l.1.1c-1.3 1.35-2.52 2.29-4.26 2.29-2.41 0-3.45-1.17-3.43-3.74zm8.3-1.9a6.21 6.21 0 0 1 6.37-6.27c3.33 0 4.65 2.16 4.65 3.77a2.84 2.84 0 0 1-.05.49s-5.56-.08-7-.13a8 8 0 0 0 0 1.12c0 2.76 1.48 4.76 3.9 4.76a3.22 3.22 0 0 0 3.15-2l.16.08c-1 2.57-2.73 4-5.54 4a5.58 5.58 0 0 1-5.64-5.82zm7.62-2.42c0-1.56-.29-3.48-1.61-3.48-.91 0-1.82 1.22-2 3.48zm5.25 7.47l-.08-3.28.1.05.7 1.07c1.07 1.77 1.79 2.63 3.43 2.63a1.8 1.8 0 0 0 2-1.9c0-1.27-1.27-1.79-2.7-2.39-2-.78-3.48-1.56-3.48-3.59 0-2.34 1.85-3.82 4.52-3.82a8.56 8.56 0 0 1 2.55.44l1.2-.23.13 3.56-.1.05-2.42-3.17a2.78 2.78 0 0 0-1.4-.42 1.71 1.71 0 0 0-1.88 1.87c0 1.17 1.3 1.69 2.78 2.29 1.64.73 3.56 1.46 3.56 3.67 0 2-1.43 3.87-4.86 3.87a12 12 0 0 1-4.05-.7z" fill="#60c9df"/></svg>